<svg width="39" height="32" fill="none" xmlns="http://www.w3.org/2000/svg"><g clip-path="url(#clip0_3_733)"><path d="M24.257 30.773L38.184 17.63a2.6 2.6 0 00.605-.85 2.504 2.504 0 000-2.017 2.599 2.599 0 00-.605-.85L24.258.77a2.88 2.88 0 00-1.97-.77 2.88 2.88 0 00-1.97.77 2.597 2.597 0 00-.604.85 2.502 2.502 0 000 2.017c.14.319.346.608.605.85l9.166 8.656h-26.7a2.861 2.861 0 00-1.068.185 2.79 2.79 0 00-.91.566 2.628 2.628 0 00-.61.86 2.53 2.53 0 000 2.035c.142.323.35.615.61.86.261.244.57.437.91.566.34.129.703.192 1.068.185h26.7l-9.174 8.656a2.598 2.598 0 00-.604.85 2.503 2.503 0 000 2.017 2.6 2.6 0 00.604.85 2.88 2.88 0 001.97.77 2.88 2.88 0 001.97-.77h.006z" fill="#FFBE00"/></g><defs><clipPath id="clip0_3_733"><path fill="#fff" d="M0 0h39v31.542H0z"/></clipPath></defs></svg>