<svg width="24" height="24" fill="none" xmlns="http://www.w3.org/2000/svg"><g clip-path="url(#clip0_3_772)" fill="#FFBE00"><path d="M11.617 2.093c3.104 0 3.472.014 4.692.068a6.368 6.368 0 012.156.4c.503.185.96.481 1.334.866.385.375.682.83.87 1.335.257.69.392 1.419.4 2.155.054 1.226.068 1.593.068 4.693 0 3.1-.014 3.471-.068 4.692a6.368 6.368 0 01-.4 2.156 3.59 3.59 0 01-.866 1.336c-.375.385-.83.682-1.334.87a6.4 6.4 0 01-2.156.4c-1.225.054-1.592.068-4.692.068s-3.472-.014-4.693-.068a6.369 6.369 0 01-2.155-.4 3.596 3.596 0 01-1.33-.87 3.645 3.645 0 01-.872-1.334 6.397 6.397 0 01-.399-2.156c-.054-1.225-.068-1.593-.068-4.693 0-3.1.014-3.471.068-4.692a6.368 6.368 0 01.4-2.156c.184-.502.479-.957.862-1.332a3.64 3.64 0 011.334-.87 6.392 6.392 0 012.156-.4c1.22-.054 1.588-.068 4.692-.068h.001zm0-2.092c-3.154 0-3.549.014-4.788.068a8.48 8.48 0 00-2.817.54 5.66 5.66 0 00-2.06 1.344A5.687 5.687 0 00.608 4.008a8.507 8.507 0 00-.54 2.818C.014 8.069 0 8.464 0 11.618c0 3.155.014 3.548.068 4.788a8.48 8.48 0 00.54 2.818 5.67 5.67 0 001.344 2.06 5.682 5.682 0 002.056 1.339 8.51 8.51 0 002.817.54c1.238.055 1.635.068 4.788.068 3.153 0 3.549-.013 4.788-.068a8.48 8.48 0 002.817-.54 5.94 5.94 0 003.395-3.394 8.507 8.507 0 00.54-2.817c.054-1.239.068-1.635.068-4.788 0-3.154-.014-3.549-.068-4.789a8.478 8.478 0 00-.54-2.817 5.45 5.45 0 00-1.33-2.065 5.68 5.68 0 00-2.055-1.34 8.507 8.507 0 00-2.818-.54C15.167.012 14.772 0 11.617 0z"/><path d="M11.617 5.65a5.968 5.968 0 100 11.936 5.968 5.968 0 000-11.936zm0 9.838a3.872 3.872 0 110-7.745 3.872 3.872 0 010 7.745zm7.595-10.073a1.393 1.393 0 11-2.786 0 1.393 1.393 0 012.787 0z"/></g><defs><clipPath id="clip0_3_772"><path fill="#fff" d="M0 0h23.221v23.23H0z"/></clipPath></defs></svg>