<svg width="21" height="17" fill="none" xmlns="http://www.w3.org/2000/svg"><g clip-path="url(#clip0_3_777)"><path d="M20.127 1.934a8.14 8.14 0 01-2.37.648A4.152 4.152 0 0019.573.299c-.81.48-1.697.819-2.622 1.002a4.13 4.13 0 00-7.036 3.766A11.719 11.719 0 011.406.75a4.13 4.13 0 001.278 5.51 4.13 4.13 0 01-1.87-.517v.051a4.13 4.13 0 003.312 4.045 4.13 4.13 0 01-1.863.07 4.143 4.143 0 003.852 2.878 8.283 8.283 0 01-6.116 1.71 11.678 11.678 0 006.333 1.854A11.67 11.67 0 0018.077 4.603c0-.18 0-.358-.013-.534a8.31 8.31 0 002.06-2.135h.003z" fill="#FFBE00"/></g><defs><clipPath id="clip0_3_777"><path fill="#fff" d="M0 0h20.127v16.351H0z"/></clipPath></defs></svg>